<mxfile host="app.diagrams.net" modified="2022-07-17T18:41:00.615Z" agent="5.0 (Windows NT 10.0; Win64; x64) AppleWebKit/537.36 (KHTML, like Gecko) Chrome/103.0.5060.114 Safari/537.36 Edg/103.0.1264.62" etag="UDVb5vCiqHSk1yGkVC_j" version="20.1.1" type="github" pages="2">
  <diagram id="6zeqPsELgRtau0Js4Fgp" name="Page-1">
    <mxGraphModel dx="1422" dy="804" grid="1" gridSize="10" guides="1" tooltips="1" connect="1" arrows="1" fold="1" page="1" pageScale="1" pageWidth="1100" pageHeight="850" math="0" shadow="0">
      <root>
        <mxCell id="0" />
        <mxCell id="1" parent="0" />
        <UserObject label="" lucidchartObjectId="f10AVQHZ490~" id="z-P8DBxJ2yzLYH9Ekazr-1">
          <mxCell style="html=1;overflow=block;blockSpacing=1;whiteSpace=wrap;fontSize=13;spacing=3.8;strokeOpacity=100;fillOpacity=0;fillColor=#000000;dashed=1;fixDash=1;dashPattern=6 5;strokeWidth=1.5;" parent="1" vertex="1">
            <mxGeometry x="131" y="165" width="277" height="675" as="geometry" />
          </mxCell>
        </UserObject>
        <UserObject label="BottleNeckCSP" lucidchartObjectId="PzMACFnxAkal" id="z-P8DBxJ2yzLYH9Ekazr-2">
          <mxCell style="html=1;overflow=block;blockSpacing=1;whiteSpace=wrap;fontSize=18.5;fontColor=default;spacing=9;strokeOpacity=100;rounded=1;absoluteArcSize=1;arcSize=18;strokeWidth=0.8;" parent="1" vertex="1">
            <mxGeometry x="180" y="285" width="180" height="60" as="geometry" />
          </mxCell>
        </UserObject>
        <UserObject label="BottleNeckCSP" lucidchartObjectId="vCMAVAWilBPB" id="z-P8DBxJ2yzLYH9Ekazr-3">
          <mxCell style="html=1;overflow=block;blockSpacing=1;whiteSpace=wrap;fontSize=18.5;fontColor=default;spacing=9;strokeOpacity=100;rounded=1;absoluteArcSize=1;arcSize=18;strokeWidth=0.8;" parent="1" vertex="1">
            <mxGeometry x="180" y="521" width="180" height="60" as="geometry" />
          </mxCell>
        </UserObject>
        <UserObject label="SPP" lucidchartObjectId="LDMABtLDGz~b" id="z-P8DBxJ2yzLYH9Ekazr-4">
          <mxCell style="html=1;overflow=block;blockSpacing=1;whiteSpace=wrap;fontSize=18.5;fontColor=default;spacing=9;strokeOpacity=100;rounded=1;absoluteArcSize=1;arcSize=18;strokeWidth=0.8;" parent="1" vertex="1">
            <mxGeometry x="180" y="701" width="180" height="60" as="geometry" />
          </mxCell>
        </UserObject>
        <UserObject label="BottleNeckCSP" lucidchartObjectId="qFMAZNwBCuj7" id="z-P8DBxJ2yzLYH9Ekazr-5">
          <mxCell style="html=1;overflow=block;blockSpacing=1;whiteSpace=wrap;fontSize=18.5;fontColor=default;spacing=9;strokeOpacity=100;rounded=1;absoluteArcSize=1;arcSize=18;strokeWidth=0.8;" parent="1" vertex="1">
            <mxGeometry x="450" y="708" width="180" height="46" as="geometry" />
          </mxCell>
        </UserObject>
        <UserObject label="Conv1x1" lucidchartObjectId="zHMAhrEo.ZjH" id="z-P8DBxJ2yzLYH9Ekazr-6">
          <mxCell style="html=1;overflow=block;blockSpacing=1;whiteSpace=wrap;fontSize=18.5;fontColor=default;spacing=9;strokeOpacity=100;rounded=1;absoluteArcSize=1;arcSize=18;strokeWidth=0.8;" parent="1" vertex="1">
            <mxGeometry x="465" y="656" width="150" height="30" as="geometry" />
          </mxCell>
        </UserObject>
        <UserObject label="UpSample" lucidchartObjectId="4IMABP9mHb~o" id="z-P8DBxJ2yzLYH9Ekazr-7">
          <mxCell style="html=1;overflow=block;blockSpacing=1;whiteSpace=wrap;fontSize=18.5;fontColor=default;spacing=9;strokeOpacity=100;rounded=1;absoluteArcSize=1;arcSize=18;strokeWidth=0.8;" parent="1" vertex="1">
            <mxGeometry x="465" y="592" width="150" height="46" as="geometry" />
          </mxCell>
        </UserObject>
        <UserObject label="Concat" lucidchartObjectId="aJMAxtCpHuYp" id="z-P8DBxJ2yzLYH9Ekazr-8">
          <mxCell style="html=1;overflow=block;blockSpacing=1;whiteSpace=wrap;fontSize=18.5;fontColor=default;spacing=9;strokeOpacity=100;rounded=1;absoluteArcSize=1;arcSize=18;strokeWidth=0.8;" parent="1" vertex="1">
            <mxGeometry x="465" y="532" width="150" height="46" as="geometry" />
          </mxCell>
        </UserObject>
        <UserObject label="BottleNeckCSP" lucidchartObjectId="hJMAM3kYR48a" id="z-P8DBxJ2yzLYH9Ekazr-9">
          <mxCell style="html=1;overflow=block;blockSpacing=1;whiteSpace=wrap;fontSize=18.5;fontColor=default;spacing=9;strokeOpacity=100;rounded=1;absoluteArcSize=1;arcSize=18;strokeWidth=0.8;" parent="1" vertex="1">
            <mxGeometry x="450" y="468" width="180" height="46" as="geometry" />
          </mxCell>
        </UserObject>
        <UserObject label="Conv1x1" lucidchartObjectId="pJMAvcjSMbP5" id="z-P8DBxJ2yzLYH9Ekazr-10">
          <mxCell style="html=1;overflow=block;blockSpacing=1;whiteSpace=wrap;fontSize=18.5;fontColor=default;spacing=9;strokeOpacity=100;rounded=1;absoluteArcSize=1;arcSize=18;strokeWidth=0.8;" parent="1" vertex="1">
            <mxGeometry x="465" y="416" width="150" height="30" as="geometry" />
          </mxCell>
        </UserObject>
        <UserObject label="UpSample" lucidchartObjectId="yJMAsmw-qIUY" id="z-P8DBxJ2yzLYH9Ekazr-11">
          <mxCell style="html=1;overflow=block;blockSpacing=1;whiteSpace=wrap;fontSize=18.5;fontColor=default;spacing=9;strokeOpacity=100;rounded=1;absoluteArcSize=1;arcSize=18;strokeWidth=0.8;" parent="1" vertex="1">
            <mxGeometry x="465" y="352" width="150" height="46" as="geometry" />
          </mxCell>
        </UserObject>
        <UserObject label="Concat" lucidchartObjectId="AJMAFTsLLPVV" id="z-P8DBxJ2yzLYH9Ekazr-12">
          <mxCell style="html=1;overflow=block;blockSpacing=1;whiteSpace=wrap;fontSize=18.5;fontColor=default;spacing=9;strokeOpacity=100;rounded=1;absoluteArcSize=1;arcSize=18;strokeWidth=0.8;" parent="1" vertex="1">
            <mxGeometry x="465" y="292" width="150" height="46" as="geometry" />
          </mxCell>
        </UserObject>
        <UserObject label="BottleNeckCSP" lucidchartObjectId="IJMAaOqEGM9g" id="z-P8DBxJ2yzLYH9Ekazr-13">
          <mxCell style="html=1;overflow=block;blockSpacing=1;whiteSpace=wrap;fontSize=18.5;fontColor=default;spacing=9;strokeOpacity=100;rounded=1;absoluteArcSize=1;arcSize=18;strokeWidth=0.8;" parent="1" vertex="1">
            <mxGeometry x="765" y="292" width="180" height="46" as="geometry" />
          </mxCell>
        </UserObject>
        <UserObject label="Conv3x3 S2" lucidchartObjectId="MJMAyXilCc1_" id="z-P8DBxJ2yzLYH9Ekazr-14">
          <mxCell style="html=1;overflow=block;blockSpacing=1;whiteSpace=wrap;fontSize=18.5;fontColor=default;spacing=9;strokeOpacity=100;rounded=1;absoluteArcSize=1;arcSize=18;strokeWidth=0.8;" parent="1" vertex="1">
            <mxGeometry x="773" y="356" width="165" height="34" as="geometry" />
          </mxCell>
        </UserObject>
        <UserObject label="Concat" lucidchartObjectId="3JMA1VTQPBpK" id="z-P8DBxJ2yzLYH9Ekazr-15">
          <mxCell style="html=1;overflow=block;blockSpacing=1;whiteSpace=wrap;fontSize=18.5;fontColor=default;spacing=9;strokeOpacity=100;rounded=1;absoluteArcSize=1;arcSize=18;strokeWidth=0.8;" parent="1" vertex="1">
            <mxGeometry x="795" y="408" width="120" height="46" as="geometry" />
          </mxCell>
        </UserObject>
        <UserObject label="BottleNeckCSP" lucidchartObjectId=".JMAJOKf7QQV" id="z-P8DBxJ2yzLYH9Ekazr-16">
          <mxCell style="html=1;overflow=block;blockSpacing=1;whiteSpace=wrap;fontSize=18.5;fontColor=default;spacing=9;strokeOpacity=100;rounded=1;absoluteArcSize=1;arcSize=18;strokeWidth=0.8;" parent="1" vertex="1">
            <mxGeometry x="765" y="532" width="180" height="46" as="geometry" />
          </mxCell>
        </UserObject>
        <UserObject label="Conv3x3 S2" lucidchartObjectId="fKMApmfgICH3" id="z-P8DBxJ2yzLYH9Ekazr-17">
          <mxCell style="html=1;overflow=block;blockSpacing=1;whiteSpace=wrap;fontSize=18.5;fontColor=default;spacing=9;strokeOpacity=100;rounded=1;absoluteArcSize=1;arcSize=18;strokeWidth=0.8;" parent="1" vertex="1">
            <mxGeometry x="765" y="598" width="165" height="34" as="geometry" />
          </mxCell>
        </UserObject>
        <UserObject label="Concat" lucidchartObjectId="lKMAKSkx0F~3" id="z-P8DBxJ2yzLYH9Ekazr-18">
          <mxCell style="html=1;overflow=block;blockSpacing=1;whiteSpace=wrap;fontSize=18.5;fontColor=default;spacing=9;strokeOpacity=100;rounded=1;absoluteArcSize=1;arcSize=18;strokeWidth=0.8;" parent="1" vertex="1">
            <mxGeometry x="788" y="648" width="128" height="46" as="geometry" />
          </mxCell>
        </UserObject>
        <UserObject label="BottleNeckCSP" lucidchartObjectId="qKMA-ZlAR-H3" id="z-P8DBxJ2yzLYH9Ekazr-19">
          <mxCell style="html=1;overflow=block;blockSpacing=1;whiteSpace=wrap;fontSize=18.5;fontColor=default;spacing=9;strokeOpacity=100;rounded=1;absoluteArcSize=1;arcSize=18;strokeWidth=0.8;" parent="1" vertex="1">
            <mxGeometry x="761" y="706" width="180" height="46" as="geometry" />
          </mxCell>
        </UserObject>
        <UserObject label="Conv1x1" lucidchartObjectId="JKMA8LZlr9tX" id="z-P8DBxJ2yzLYH9Ekazr-20">
          <mxCell style="html=1;overflow=block;blockSpacing=1;whiteSpace=wrap;fontSize=18.5;fontColor=default;spacing=9;strokeOpacity=100;rounded=1;absoluteArcSize=1;arcSize=18;strokeWidth=0.8;" parent="1" vertex="1">
            <mxGeometry x="1050" y="300" width="150" height="30" as="geometry" />
          </mxCell>
        </UserObject>
        <UserObject label="Conv1x1" lucidchartObjectId="MKMA8FaWDwLN" id="z-P8DBxJ2yzLYH9Ekazr-21">
          <mxCell style="html=1;overflow=block;blockSpacing=1;whiteSpace=wrap;fontSize=18.5;fontColor=default;spacing=9;strokeOpacity=100;rounded=1;absoluteArcSize=1;arcSize=18;strokeWidth=0.8;" parent="1" vertex="1">
            <mxGeometry x="1050" y="540" width="150" height="30" as="geometry" />
          </mxCell>
        </UserObject>
        <UserObject label="Conv1x1" lucidchartObjectId="OKMA9B~x_f_8" id="z-P8DBxJ2yzLYH9Ekazr-22">
          <mxCell style="html=1;overflow=block;blockSpacing=1;whiteSpace=wrap;fontSize=18.5;fontColor=default;spacing=9;strokeOpacity=100;rounded=1;absoluteArcSize=1;arcSize=18;strokeWidth=0.8;" parent="1" vertex="1">
            <mxGeometry x="1050" y="714" width="150" height="30" as="geometry" />
          </mxCell>
        </UserObject>
        <UserObject label="" lucidchartObjectId="ZKMAdAU41mkY" id="z-P8DBxJ2yzLYH9Ekazr-23">
          <mxCell style="html=1;jettySize=18;whiteSpace=wrap;fontSize=13;strokeOpacity=100;dashed=1;fixDash=1;dashPattern=10 5 1 5 1 5;strokeWidth=1.5;rounded=1;arcSize=0;edgeStyle=orthogonalEdgeStyle;startArrow=none;endArrow=block;endFill=1;exitX=0.5;exitY=1.005;exitPerimeter=0;entryX=0.5;entryY=-0.005;entryPerimeter=0;" parent="1" source="z-P8DBxJ2yzLYH9Ekazr-2" target="z-P8DBxJ2yzLYH9Ekazr-3" edge="1">
            <mxGeometry width="100" height="100" relative="1" as="geometry">
              <Array as="points" />
            </mxGeometry>
          </mxCell>
        </UserObject>
        <UserObject label="" lucidchartObjectId="5KMABeR6KZDK" id="z-P8DBxJ2yzLYH9Ekazr-24">
          <mxCell style="html=1;jettySize=18;whiteSpace=wrap;fontSize=13;strokeOpacity=100;dashed=1;fixDash=1;dashPattern=10 5 1 5;strokeWidth=1.5;rounded=1;arcSize=0;edgeStyle=orthogonalEdgeStyle;startArrow=none;endArrow=block;endFill=1;exitX=0.5;exitY=1.005;exitPerimeter=0;entryX=0.5;entryY=-0.005;entryPerimeter=0;" parent="1" source="z-P8DBxJ2yzLYH9Ekazr-3" target="z-P8DBxJ2yzLYH9Ekazr-4" edge="1">
            <mxGeometry width="100" height="100" relative="1" as="geometry">
              <Array as="points" />
            </mxGeometry>
          </mxCell>
        </UserObject>
        <UserObject label="" lucidchartObjectId="lLMA4E.HB3OK" id="z-P8DBxJ2yzLYH9Ekazr-25">
          <mxCell style="html=1;jettySize=18;whiteSpace=wrap;fontSize=13;strokeOpacity=100;strokeWidth=1.5;rounded=1;arcSize=0;edgeStyle=orthogonalEdgeStyle;startArrow=none;endArrow=block;endFill=1;exitX=1.002;exitY=0.5;exitPerimeter=0;entryX=-0.002;entryY=0.5;entryPerimeter=0;" parent="1" source="z-P8DBxJ2yzLYH9Ekazr-2" target="z-P8DBxJ2yzLYH9Ekazr-12" edge="1">
            <mxGeometry width="100" height="100" relative="1" as="geometry">
              <Array as="points" />
            </mxGeometry>
          </mxCell>
        </UserObject>
        <UserObject label="" lucidchartObjectId="_OMAG1YRmSGS" id="z-P8DBxJ2yzLYH9Ekazr-26">
          <mxCell style="html=1;jettySize=18;whiteSpace=wrap;fontSize=13;strokeOpacity=100;strokeWidth=1.5;rounded=1;arcSize=0;edgeStyle=orthogonalEdgeStyle;startArrow=none;endArrow=block;endFill=1;exitX=0.5;exitY=-0.007;exitPerimeter=0;entryX=0.5;entryY=1.007;entryPerimeter=0;" parent="1" source="z-P8DBxJ2yzLYH9Ekazr-11" target="z-P8DBxJ2yzLYH9Ekazr-12" edge="1">
            <mxGeometry width="100" height="100" relative="1" as="geometry">
              <Array as="points" />
            </mxGeometry>
          </mxCell>
        </UserObject>
        <UserObject label="" lucidchartObjectId="dPMAaUlFfJzQ" id="z-P8DBxJ2yzLYH9Ekazr-27">
          <mxCell style="html=1;jettySize=18;whiteSpace=wrap;fontSize=13;strokeOpacity=100;strokeWidth=1.5;rounded=1;arcSize=0;edgeStyle=orthogonalEdgeStyle;startArrow=none;endArrow=block;endFill=1;exitX=0.5;exitY=-0.011;exitPerimeter=0;entryX=0.5;entryY=1.007;entryPerimeter=0;" parent="1" source="z-P8DBxJ2yzLYH9Ekazr-10" target="z-P8DBxJ2yzLYH9Ekazr-11" edge="1">
            <mxGeometry width="100" height="100" relative="1" as="geometry">
              <Array as="points" />
            </mxGeometry>
          </mxCell>
        </UserObject>
        <UserObject label="" lucidchartObjectId="yPMAOPP_yAlL" id="z-P8DBxJ2yzLYH9Ekazr-28">
          <mxCell style="html=1;jettySize=18;whiteSpace=wrap;fontSize=13;strokeOpacity=100;strokeWidth=1.5;rounded=1;arcSize=0;edgeStyle=orthogonalEdgeStyle;startArrow=none;endArrow=block;endFill=1;exitX=0.5;exitY=-0.007;exitPerimeter=0;entryX=0.5;entryY=1.011;entryPerimeter=0;" parent="1" source="z-P8DBxJ2yzLYH9Ekazr-9" target="z-P8DBxJ2yzLYH9Ekazr-10" edge="1">
            <mxGeometry width="100" height="100" relative="1" as="geometry">
              <Array as="points" />
            </mxGeometry>
          </mxCell>
        </UserObject>
        <UserObject label="" lucidchartObjectId="APMAJtDh_Vzx" id="z-P8DBxJ2yzLYH9Ekazr-29">
          <mxCell style="html=1;jettySize=18;whiteSpace=wrap;fontSize=13;strokeOpacity=100;strokeWidth=1.5;rounded=1;arcSize=0;edgeStyle=orthogonalEdgeStyle;startArrow=none;endArrow=block;endFill=1;exitX=0.5;exitY=-0.007;exitPerimeter=0;entryX=0.5;entryY=1.007;entryPerimeter=0;" parent="1" source="z-P8DBxJ2yzLYH9Ekazr-8" target="z-P8DBxJ2yzLYH9Ekazr-9" edge="1">
            <mxGeometry width="100" height="100" relative="1" as="geometry">
              <Array as="points" />
            </mxGeometry>
          </mxCell>
        </UserObject>
        <UserObject label="" lucidchartObjectId="CPMATKrj8ePn" id="z-P8DBxJ2yzLYH9Ekazr-30">
          <mxCell style="html=1;jettySize=18;whiteSpace=wrap;fontSize=13;strokeOpacity=100;strokeWidth=1.5;rounded=1;arcSize=0;edgeStyle=orthogonalEdgeStyle;startArrow=none;endArrow=block;endFill=1;exitX=0.5;exitY=-0.007;exitPerimeter=0;entryX=0.5;entryY=1.007;entryPerimeter=0;" parent="1" source="z-P8DBxJ2yzLYH9Ekazr-7" target="z-P8DBxJ2yzLYH9Ekazr-8" edge="1">
            <mxGeometry width="100" height="100" relative="1" as="geometry">
              <Array as="points" />
            </mxGeometry>
          </mxCell>
        </UserObject>
        <UserObject label="" lucidchartObjectId="MPMAP7WjKg3u" id="z-P8DBxJ2yzLYH9Ekazr-31">
          <mxCell style="html=1;jettySize=18;whiteSpace=wrap;fontSize=13;strokeOpacity=100;strokeWidth=1.5;rounded=1;arcSize=0;edgeStyle=orthogonalEdgeStyle;startArrow=none;endArrow=block;endFill=1;exitX=0.5;exitY=-0.011;exitPerimeter=0;entryX=0.5;entryY=1.007;entryPerimeter=0;" parent="1" source="z-P8DBxJ2yzLYH9Ekazr-6" target="z-P8DBxJ2yzLYH9Ekazr-7" edge="1">
            <mxGeometry width="100" height="100" relative="1" as="geometry">
              <Array as="points" />
            </mxGeometry>
          </mxCell>
        </UserObject>
        <UserObject label="" lucidchartObjectId="OPMAKTX1X1Xl" id="z-P8DBxJ2yzLYH9Ekazr-32">
          <mxCell style="html=1;jettySize=18;whiteSpace=wrap;fontSize=13;strokeOpacity=100;strokeWidth=1.5;rounded=1;arcSize=0;edgeStyle=orthogonalEdgeStyle;startArrow=none;endArrow=block;endFill=1;exitX=0.5;exitY=-0.007;exitPerimeter=0;entryX=0.5;entryY=1.011;entryPerimeter=0;" parent="1" source="z-P8DBxJ2yzLYH9Ekazr-5" target="z-P8DBxJ2yzLYH9Ekazr-6" edge="1">
            <mxGeometry width="100" height="100" relative="1" as="geometry">
              <Array as="points" />
            </mxGeometry>
          </mxCell>
        </UserObject>
        <UserObject label="" lucidchartObjectId="SPMA3w_0l-BV" id="z-P8DBxJ2yzLYH9Ekazr-33">
          <mxCell style="html=1;jettySize=18;whiteSpace=wrap;fontSize=13;strokeOpacity=100;strokeWidth=1.5;rounded=1;arcSize=0;edgeStyle=orthogonalEdgeStyle;startArrow=none;endArrow=block;endFill=1;exitX=1.002;exitY=0.5;exitPerimeter=0;entryX=-0.002;entryY=0.5;entryPerimeter=0;" parent="1" source="z-P8DBxJ2yzLYH9Ekazr-4" target="z-P8DBxJ2yzLYH9Ekazr-5" edge="1">
            <mxGeometry width="100" height="100" relative="1" as="geometry">
              <Array as="points" />
            </mxGeometry>
          </mxCell>
        </UserObject>
        <UserObject label="" lucidchartObjectId="7PMAHM~19NNB" id="z-P8DBxJ2yzLYH9Ekazr-34">
          <mxCell style="html=1;jettySize=18;whiteSpace=wrap;fontSize=13;strokeOpacity=100;strokeWidth=1.5;rounded=1;arcSize=0;edgeStyle=orthogonalEdgeStyle;startArrow=none;endArrow=block;endFill=1;exitX=1.002;exitY=0.5;exitPerimeter=0;entryX=-0.002;entryY=0.5;entryPerimeter=0;" parent="1" source="z-P8DBxJ2yzLYH9Ekazr-12" target="z-P8DBxJ2yzLYH9Ekazr-13" edge="1">
            <mxGeometry width="100" height="100" relative="1" as="geometry">
              <Array as="points" />
            </mxGeometry>
          </mxCell>
        </UserObject>
        <UserObject label="" lucidchartObjectId="_PMAD55ZXhEN" id="z-P8DBxJ2yzLYH9Ekazr-35">
          <mxCell style="html=1;jettySize=18;whiteSpace=wrap;fontSize=13;strokeOpacity=100;strokeWidth=1.5;rounded=1;arcSize=0;edgeStyle=orthogonalEdgeStyle;startArrow=none;endArrow=block;endFill=1;exitX=1.002;exitY=0.5;exitPerimeter=0;entryX=-0.003;entryY=0.5;entryPerimeter=0;" parent="1" source="z-P8DBxJ2yzLYH9Ekazr-10" target="z-P8DBxJ2yzLYH9Ekazr-15" edge="1">
            <mxGeometry width="100" height="100" relative="1" as="geometry">
              <Array as="points" />
            </mxGeometry>
          </mxCell>
        </UserObject>
        <UserObject label="" lucidchartObjectId="cQMAGAbL0HoD" id="z-P8DBxJ2yzLYH9Ekazr-36">
          <mxCell style="html=1;jettySize=18;whiteSpace=wrap;fontSize=13;strokeOpacity=100;strokeWidth=1.5;rounded=1;arcSize=0;edgeStyle=orthogonalEdgeStyle;startArrow=none;endArrow=block;endFill=1;exitX=1.002;exitY=0.5;exitPerimeter=0;entryX=-0.003;entryY=0.5;entryPerimeter=0;" parent="1" source="z-P8DBxJ2yzLYH9Ekazr-6" target="z-P8DBxJ2yzLYH9Ekazr-18" edge="1">
            <mxGeometry width="100" height="100" relative="1" as="geometry">
              <Array as="points" />
            </mxGeometry>
          </mxCell>
        </UserObject>
        <UserObject label="" lucidchartObjectId="gQMABIGkQdYf" id="z-P8DBxJ2yzLYH9Ekazr-37">
          <mxCell style="html=1;jettySize=18;whiteSpace=wrap;fontSize=13;strokeOpacity=100;strokeWidth=1.5;rounded=1;arcSize=0;edgeStyle=orthogonalEdgeStyle;startArrow=none;endArrow=block;endFill=1;exitX=0.5;exitY=1.007;exitPerimeter=0;entryX=0.5;entryY=-0.009;entryPerimeter=0;" parent="1" source="z-P8DBxJ2yzLYH9Ekazr-13" target="z-P8DBxJ2yzLYH9Ekazr-14" edge="1">
            <mxGeometry width="100" height="100" relative="1" as="geometry">
              <Array as="points" />
            </mxGeometry>
          </mxCell>
        </UserObject>
        <UserObject label="" lucidchartObjectId="iQMAwrCMIHRm" id="z-P8DBxJ2yzLYH9Ekazr-38">
          <mxCell style="html=1;jettySize=18;whiteSpace=wrap;fontSize=13;strokeOpacity=100;strokeWidth=1.5;rounded=1;arcSize=0;edgeStyle=orthogonalEdgeStyle;startArrow=none;endArrow=block;endFill=1;exitX=0.5;exitY=1.009;exitPerimeter=0;entryX=0.5;entryY=-0.007;entryPerimeter=0;" parent="1" source="z-P8DBxJ2yzLYH9Ekazr-14" target="z-P8DBxJ2yzLYH9Ekazr-15" edge="1">
            <mxGeometry width="100" height="100" relative="1" as="geometry">
              <Array as="points" />
            </mxGeometry>
          </mxCell>
        </UserObject>
        <UserObject label="" lucidchartObjectId="xQMA2nqf1WyF" id="z-P8DBxJ2yzLYH9Ekazr-39">
          <mxCell style="html=1;jettySize=18;whiteSpace=wrap;fontSize=13;strokeOpacity=100;strokeWidth=1.5;rounded=1;arcSize=0;edgeStyle=orthogonalEdgeStyle;startArrow=none;endArrow=block;endFill=1;exitX=0.5;exitY=1.007;exitPerimeter=0;entryX=0.5;entryY=-0.007;entryPerimeter=0;" parent="1" source="z-P8DBxJ2yzLYH9Ekazr-15" target="z-P8DBxJ2yzLYH9Ekazr-16" edge="1">
            <mxGeometry width="100" height="100" relative="1" as="geometry">
              <Array as="points" />
            </mxGeometry>
          </mxCell>
        </UserObject>
        <UserObject label="" lucidchartObjectId="zQMAlg4ceGNk" id="z-P8DBxJ2yzLYH9Ekazr-40">
          <mxCell style="html=1;jettySize=18;whiteSpace=wrap;fontSize=13;strokeOpacity=100;strokeWidth=1.5;rounded=1;arcSize=0;edgeStyle=orthogonalEdgeStyle;startArrow=none;endArrow=block;endFill=1;exitX=0.5;exitY=1.007;exitPerimeter=0;entryX=0.545;entryY=-0.01;entryPerimeter=0;" parent="1" source="z-P8DBxJ2yzLYH9Ekazr-16" target="z-P8DBxJ2yzLYH9Ekazr-17" edge="1">
            <mxGeometry width="100" height="100" relative="1" as="geometry">
              <Array as="points" />
            </mxGeometry>
          </mxCell>
        </UserObject>
        <UserObject label="" lucidchartObjectId="BQMAJTI9vOiN" id="z-P8DBxJ2yzLYH9Ekazr-41">
          <mxCell style="html=1;jettySize=18;whiteSpace=wrap;fontSize=13;strokeOpacity=100;strokeWidth=1.5;rounded=1;arcSize=0;edgeStyle=orthogonalEdgeStyle;startArrow=none;endArrow=block;endFill=1;exitX=0.5;exitY=1.009;exitPerimeter=0;entryX=0.471;entryY=-0.007;entryPerimeter=0;" parent="1" source="z-P8DBxJ2yzLYH9Ekazr-17" target="z-P8DBxJ2yzLYH9Ekazr-18" edge="1">
            <mxGeometry width="100" height="100" relative="1" as="geometry">
              <Array as="points" />
            </mxGeometry>
          </mxCell>
        </UserObject>
        <UserObject label="" lucidchartObjectId="DQMAFEe70K8q" id="z-P8DBxJ2yzLYH9Ekazr-42">
          <mxCell style="html=1;jettySize=18;whiteSpace=wrap;fontSize=13;strokeOpacity=100;strokeWidth=1.5;rounded=1;arcSize=0;edgeStyle=orthogonalEdgeStyle;startArrow=none;endArrow=block;endFill=1;exitX=0.5;exitY=1.007;exitPerimeter=0;entryX=0.5;entryY=-0.007;entryPerimeter=0;" parent="1" source="z-P8DBxJ2yzLYH9Ekazr-18" target="z-P8DBxJ2yzLYH9Ekazr-19" edge="1">
            <mxGeometry width="100" height="100" relative="1" as="geometry">
              <Array as="points" />
            </mxGeometry>
          </mxCell>
        </UserObject>
        <UserObject label="" lucidchartObjectId="HQMAKcH82U8Y" id="z-P8DBxJ2yzLYH9Ekazr-43">
          <mxCell style="html=1;jettySize=18;whiteSpace=wrap;fontSize=13;strokeOpacity=100;strokeWidth=1.5;rounded=1;arcSize=0;edgeStyle=orthogonalEdgeStyle;startArrow=none;endArrow=block;endFill=1;exitX=1.002;exitY=0.5;exitPerimeter=0;entryX=-0.002;entryY=0.5;entryPerimeter=0;" parent="1" source="z-P8DBxJ2yzLYH9Ekazr-16" target="z-P8DBxJ2yzLYH9Ekazr-21" edge="1">
            <mxGeometry width="100" height="100" relative="1" as="geometry">
              <Array as="points" />
            </mxGeometry>
          </mxCell>
        </UserObject>
        <UserObject label="" lucidchartObjectId="JQMAkr1-nvSL" id="z-P8DBxJ2yzLYH9Ekazr-44">
          <mxCell style="html=1;jettySize=18;whiteSpace=wrap;fontSize=13;strokeOpacity=100;strokeWidth=1.5;rounded=1;arcSize=0;edgeStyle=orthogonalEdgeStyle;startArrow=none;endArrow=block;endFill=1;exitX=1.002;exitY=0.5;exitPerimeter=0;entryX=-0.002;entryY=0.5;entryPerimeter=0;" parent="1" source="z-P8DBxJ2yzLYH9Ekazr-13" target="z-P8DBxJ2yzLYH9Ekazr-20" edge="1">
            <mxGeometry width="100" height="100" relative="1" as="geometry">
              <Array as="points" />
            </mxGeometry>
          </mxCell>
        </UserObject>
        <UserObject label="" lucidchartObjectId="LQMAqZGrxsi-" id="z-P8DBxJ2yzLYH9Ekazr-45">
          <mxCell style="html=1;jettySize=18;whiteSpace=wrap;fontSize=13;strokeOpacity=100;strokeWidth=1.5;rounded=1;arcSize=0;edgeStyle=orthogonalEdgeStyle;startArrow=none;endArrow=block;endFill=1;exitX=1.002;exitY=0.5;exitPerimeter=0;entryX=-0.002;entryY=0.5;entryPerimeter=0;" parent="1" source="z-P8DBxJ2yzLYH9Ekazr-19" target="z-P8DBxJ2yzLYH9Ekazr-22" edge="1">
            <mxGeometry width="100" height="100" relative="1" as="geometry">
              <Array as="points" />
            </mxGeometry>
          </mxCell>
        </UserObject>
        <UserObject label="" lucidchartObjectId="3PMA5Tu2syCi" id="z-P8DBxJ2yzLYH9Ekazr-46">
          <mxCell style="html=1;jettySize=18;whiteSpace=wrap;fontSize=13;strokeOpacity=100;strokeWidth=1.5;rounded=1;arcSize=0;edgeStyle=orthogonalEdgeStyle;startArrow=none;endArrow=block;endFill=1;exitX=1.002;exitY=0.5;exitPerimeter=0;entryX=-0.002;entryY=0.4;entryPerimeter=0;" parent="1" source="z-P8DBxJ2yzLYH9Ekazr-3" target="z-P8DBxJ2yzLYH9Ekazr-8" edge="1">
            <mxGeometry width="100" height="100" relative="1" as="geometry">
              <Array as="points" />
            </mxGeometry>
          </mxCell>
        </UserObject>
        <UserObject label="Input Gambar" lucidchartObjectId="O10AZIcXWyIW" id="z-P8DBxJ2yzLYH9Ekazr-47">
          <mxCell style="html=1;overflow=block;blockSpacing=1;whiteSpace=wrap;fontSize=18.5;fontColor=default;spacing=3.8;strokeOpacity=100;strokeWidth=1.5;" parent="1" vertex="1">
            <mxGeometry x="188" y="75" width="165" height="60" as="geometry" />
          </mxCell>
        </UserObject>
        <UserObject label="Focus" lucidchartObjectId="830AbkGfVx1Y" id="z-P8DBxJ2yzLYH9Ekazr-48">
          <mxCell style="html=1;overflow=block;blockSpacing=1;whiteSpace=wrap;fontSize=18.5;fontColor=default;spacing=9;strokeOpacity=100;rounded=1;absoluteArcSize=1;arcSize=18;strokeWidth=0.8;" parent="1" vertex="1">
            <mxGeometry x="180" y="180" width="180" height="60" as="geometry" />
          </mxCell>
        </UserObject>
        <UserObject label="" lucidchartObjectId="g40AE~PTXECR" id="z-P8DBxJ2yzLYH9Ekazr-49">
          <mxCell style="html=1;jettySize=18;whiteSpace=wrap;fontSize=13;strokeOpacity=100;strokeWidth=1.5;rounded=1;arcSize=0;edgeStyle=orthogonalEdgeStyle;startArrow=none;endArrow=block;endFill=1;exitX=0.5;exitY=1.013;exitPerimeter=0;entryX=0.5;entryY=-0.005;entryPerimeter=0;" parent="1" source="z-P8DBxJ2yzLYH9Ekazr-47" target="z-P8DBxJ2yzLYH9Ekazr-48" edge="1">
            <mxGeometry width="100" height="100" relative="1" as="geometry">
              <Array as="points" />
            </mxGeometry>
          </mxCell>
        </UserObject>
        <UserObject label="" lucidchartObjectId="h40AehkzF4Tf" id="z-P8DBxJ2yzLYH9Ekazr-50">
          <mxCell style="html=1;jettySize=18;whiteSpace=wrap;fontSize=13;strokeOpacity=100;strokeWidth=1.5;rounded=1;arcSize=0;edgeStyle=orthogonalEdgeStyle;startArrow=none;endArrow=block;endFill=1;exitX=0.5;exitY=1.005;exitPerimeter=0;entryX=0.5;entryY=-0.005;entryPerimeter=0;" parent="1" source="z-P8DBxJ2yzLYH9Ekazr-48" target="z-P8DBxJ2yzLYH9Ekazr-2" edge="1">
            <mxGeometry width="100" height="100" relative="1" as="geometry">
              <Array as="points" />
            </mxGeometry>
          </mxCell>
        </UserObject>
        <UserObject label="Backbone" lucidchartObjectId="B40AYRTvGAjp" id="z-P8DBxJ2yzLYH9Ekazr-51">
          <mxCell style="html=1;overflow=block;blockSpacing=1;whiteSpace=wrap;fontSize=16.8;fontColor=default;spacing=3.8;strokeOpacity=0;fillOpacity=0;fillColor=#ffffff;strokeWidth=1.5;" parent="1" vertex="1">
            <mxGeometry x="173" y="795" width="180" height="45" as="geometry" />
          </mxCell>
        </UserObject>
        <UserObject label="" lucidchartObjectId="K40A-Ns-LUVU" id="z-P8DBxJ2yzLYH9Ekazr-52">
          <mxCell style="html=1;overflow=block;blockSpacing=1;whiteSpace=wrap;fontSize=13;spacing=3.8;strokeOpacity=100;fillOpacity=0;fillColor=#000000;dashed=1;fixDash=1;dashPattern=6 5;strokeWidth=1.5;" parent="1" vertex="1">
            <mxGeometry x="420" y="165" width="570" height="675" as="geometry" />
          </mxCell>
        </UserObject>
        <UserObject label="Neck (PANet)" lucidchartObjectId="K40A6~VoSL-y" id="z-P8DBxJ2yzLYH9Ekazr-53">
          <mxCell style="html=1;overflow=block;blockSpacing=1;whiteSpace=wrap;fontSize=16.8;fontColor=default;spacing=3.8;strokeOpacity=0;fillOpacity=0;fillColor=#ffffff;strokeWidth=1.5;" parent="1" vertex="1">
            <mxGeometry x="505" y="795" width="370" height="45" as="geometry" />
          </mxCell>
        </UserObject>
        <UserObject label="" lucidchartObjectId="940AqgMmVa89" id="z-P8DBxJ2yzLYH9Ekazr-54">
          <mxCell style="html=1;overflow=block;blockSpacing=1;whiteSpace=wrap;fontSize=13;spacing=3.8;strokeOpacity=100;fillOpacity=0;fillColor=#000000;dashed=1;fixDash=1;dashPattern=6 5;strokeWidth=1.5;" parent="1" vertex="1">
            <mxGeometry x="1001" y="165" width="277" height="675" as="geometry" />
          </mxCell>
        </UserObject>
        <UserObject label="Head" lucidchartObjectId="940AGdep5Fgi" id="z-P8DBxJ2yzLYH9Ekazr-55">
          <mxCell style="html=1;overflow=block;blockSpacing=1;whiteSpace=wrap;fontSize=16.8;fontColor=default;spacing=3.8;strokeOpacity=0;fillOpacity=0;fillColor=#ffffff;strokeWidth=1.5;" parent="1" vertex="1">
            <mxGeometry x="1043" y="795" width="180" height="45" as="geometry" />
          </mxCell>
        </UserObject>
      </root>
    </mxGraphModel>
  </diagram>
  <diagram id="1De8TyxZbx9zvrMDJ4Jg" name="Page-2">
    <mxGraphModel dx="1744" dy="1608" grid="1" gridSize="10" guides="1" tooltips="1" connect="1" arrows="1" fold="1" page="1" pageScale="1" pageWidth="1100" pageHeight="850" math="0" shadow="0">
      <root>
        <mxCell id="0" />
        <mxCell id="1" parent="0" />
        <UserObject label="Start" lucidchartObjectId="q3lb4zfFPkHq" id="9K7zFpYnBikv2srzjPrr-1">
          <mxCell style="html=1;overflow=block;blockSpacing=1;whiteSpace=wrap;fontSize=20.2;fontFamily=Barlow;fontColor=#333333;fontStyle=1;align=center;spacing=9;strokeColor=#333333;strokeOpacity=100;fillOpacity=100;rounded=1;absoluteArcSize=1;arcSize=191;fillColor=#ffffff;strokeWidth=3;" vertex="1" parent="1">
            <mxGeometry x="1476" y="255" width="191" height="103" as="geometry" />
          </mxCell>
        </UserObject>
        <UserObject label="Input Video / Gambar" lucidchartObjectId="C3lbPV-.G97H" id="9K7zFpYnBikv2srzjPrr-2">
          <mxCell style="html=1;overflow=block;blockSpacing=1;whiteSpace=wrap;shape=parallelogram;perimeter=parallelogramPerimeter;anchorPointDirection=0;fontSize=20.2;fontFamily=Barlow;fontColor=#333333;fontStyle=1;align=center;spacing=3.8;strokeColor=#333333;strokeOpacity=100;fillOpacity=100;rounded=1;absoluteArcSize=1;arcSize=12;fillColor=#ffffff;strokeWidth=3;" vertex="1" parent="1">
            <mxGeometry x="1436" y="409" width="285" height="154" as="geometry" />
          </mxCell>
        </UserObject>
        <UserObject label="" lucidchartObjectId="y4lbLu2ZFsRk" id="9K7zFpYnBikv2srzjPrr-3">
          <mxCell style="html=1;jettySize=18;whiteSpace=wrap;fontSize=13;strokeColor=#333333;strokeOpacity=100;strokeWidth=3;rounded=1;arcSize=24;edgeStyle=orthogonalEdgeStyle;startArrow=none;endArrow=block;endFill=1;exitX=0.5;exitY=1.014;exitPerimeter=0;entryX=0.479;entryY=-0.009;entryPerimeter=0;" edge="1" parent="1" source="9K7zFpYnBikv2srzjPrr-1" target="9K7zFpYnBikv2srzjPrr-2">
            <mxGeometry width="100" height="100" relative="1" as="geometry">
              <Array as="points" />
            </mxGeometry>
          </mxCell>
        </UserObject>
        <UserObject label="Inference dengan model YOLOv5" lucidchartObjectId="I5lbwOn3TXdN" id="9K7zFpYnBikv2srzjPrr-4">
          <mxCell style="html=1;overflow=block;blockSpacing=1;whiteSpace=wrap;fontSize=20.2;fontFamily=Barlow;fontColor=#333333;fontStyle=1;align=center;spacing=9;strokeColor=#333333;strokeOpacity=100;fillOpacity=100;rounded=1;absoluteArcSize=1;arcSize=12;fillColor=#ffffff;strokeWidth=3;" vertex="1" parent="1">
            <mxGeometry x="1384" y="615" width="382" height="154" as="geometry" />
          </mxCell>
        </UserObject>
        <UserObject label="" lucidchartObjectId="l6lbKAatgEJB" id="9K7zFpYnBikv2srzjPrr-5">
          <mxCell style="html=1;jettySize=18;whiteSpace=wrap;fontSize=13;strokeColor=#333333;strokeOpacity=100;strokeWidth=3;rounded=1;arcSize=24;edgeStyle=orthogonalEdgeStyle;startArrow=none;endArrow=block;endFill=1;exitX=0.489;exitY=1.009;exitPerimeter=0;entryX=0.5;entryY=-0.009;entryPerimeter=0;" edge="1" parent="1" source="9K7zFpYnBikv2srzjPrr-2" target="9K7zFpYnBikv2srzjPrr-4">
            <mxGeometry width="100" height="100" relative="1" as="geometry">
              <Array as="points" />
            </mxGeometry>
          </mxCell>
        </UserObject>
        <UserObject label="Output Inference &#xa;(x,y,widht,heighy,class, confidence)" lucidchartObjectId="E6lbcrsgnoVX" id="9K7zFpYnBikv2srzjPrr-6">
          <mxCell style="html=1;overflow=block;blockSpacing=1;whiteSpace=wrap;shape=parallelogram;perimeter=parallelogramPerimeter;anchorPointDirection=0;fontSize=20.2;fontFamily=Barlow;fontColor=#333333;fontStyle=1;align=center;spacing=3.8;strokeColor=#333333;strokeOpacity=100;fillOpacity=100;rounded=1;absoluteArcSize=1;arcSize=12;fillColor=#ffffff;strokeWidth=3;" vertex="1" parent="1">
            <mxGeometry x="1357" y="807.72" width="433" height="204.57" as="geometry" />
          </mxCell>
        </UserObject>
        <UserObject label="" lucidchartObjectId="a7lboO8B81MU" id="9K7zFpYnBikv2srzjPrr-7">
          <mxCell style="html=1;jettySize=18;whiteSpace=wrap;fontSize=13;strokeColor=#333333;strokeOpacity=100;strokeWidth=3;rounded=1;arcSize=24;edgeStyle=orthogonalEdgeStyle;startArrow=none;endArrow=block;endFill=1;exitX=0.5;exitY=1.009;exitPerimeter=0;entryX=0.505;entryY=-0.008;entryPerimeter=0;" edge="1" parent="1" source="9K7zFpYnBikv2srzjPrr-4" target="9K7zFpYnBikv2srzjPrr-6">
            <mxGeometry width="100" height="100" relative="1" as="geometry">
              <Array as="points" />
            </mxGeometry>
          </mxCell>
        </UserObject>
        <UserObject label="Apakah dalam output&#xa;terdapat kelas &quot;no_helmet&quot; ?" lucidchartObjectId="j7lb83WY_8Ew" id="9K7zFpYnBikv2srzjPrr-8">
          <mxCell style="html=1;overflow=block;blockSpacing=1;whiteSpace=wrap;rhombus;fontSize=20.2;fontFamily=Barlow;fontColor=#333333;fontStyle=1;align=center;spacing=3.8;strokeColor=#333333;strokeOpacity=100;fillOpacity=100;rounded=1;absoluteArcSize=1;arcSize=12;fillColor=#ffffff;strokeWidth=3;" vertex="1" parent="1">
            <mxGeometry x="1395" y="1051" width="356" height="205" as="geometry" />
          </mxCell>
        </UserObject>
        <UserObject label="gambar hasil print &#xa;bounding box" lucidchartObjectId="f.lb9tp_09XQ" id="9K7zFpYnBikv2srzjPrr-9">
          <mxCell style="html=1;overflow=block;blockSpacing=1;whiteSpace=wrap;shape=parallelogram;perimeter=parallelogramPerimeter;anchorPointDirection=0;fontSize=20.2;fontFamily=Barlow;fontColor=#333333;fontStyle=1;align=center;spacing=3.8;strokeColor=#333333;strokeOpacity=100;fillOpacity=100;rounded=1;absoluteArcSize=1;arcSize=12;fillColor=#ffffff;strokeWidth=3;" vertex="1" parent="1">
            <mxGeometry x="1421" y="1347" width="305" height="180" as="geometry" />
          </mxCell>
        </UserObject>
        <UserObject label="end" lucidchartObjectId="L.lbHFj9AY2~" id="9K7zFpYnBikv2srzjPrr-10">
          <mxCell style="html=1;overflow=block;blockSpacing=1;whiteSpace=wrap;fontSize=20.2;fontFamily=Barlow;fontColor=#333333;fontStyle=1;align=center;spacing=9;strokeColor=#333333;strokeOpacity=100;fillOpacity=100;rounded=1;absoluteArcSize=1;arcSize=180;fillColor=#ffffff;strokeWidth=3;" vertex="1" parent="1">
            <mxGeometry x="1480" y="1655" width="180" height="154" as="geometry" />
          </mxCell>
        </UserObject>
        <UserObject label="Menjalankan fungsi &quot;TRIGGER_ALARM&quot;" lucidchartObjectId="TyobOX5pEpMI" id="9K7zFpYnBikv2srzjPrr-11">
          <mxCell style="html=1;overflow=block;blockSpacing=1;whiteSpace=wrap;fontSize=20.2;fontFamily=Barlow;fontColor=#333333;fontStyle=1;align=center;spacing=9;strokeColor=#333333;strokeOpacity=100;fillOpacity=100;rounded=1;absoluteArcSize=1;arcSize=12;fillColor=#ffffff;strokeWidth=3;" vertex="1" parent="1">
            <mxGeometry x="1814" y="1051" width="292" height="193" as="geometry" />
          </mxCell>
        </UserObject>
        <UserObject label="Print tulisan &quot;NO HELMET DETECTED&quot;" lucidchartObjectId="3yobdlAJm0Me" id="9K7zFpYnBikv2srzjPrr-12">
          <mxCell style="html=1;overflow=block;blockSpacing=1;whiteSpace=wrap;fontSize=20.2;fontFamily=Barlow;fontColor=#333333;fontStyle=1;align=center;spacing=9;strokeColor=#333333;strokeOpacity=100;fillOpacity=100;rounded=1;absoluteArcSize=1;arcSize=12;fillColor=#ffffff;strokeWidth=3;" vertex="1" parent="1">
            <mxGeometry x="1814" y="1290" width="292" height="279" as="geometry" />
          </mxCell>
        </UserObject>
        <UserObject label="" lucidchartObjectId="tAob.iGPZiva" id="9K7zFpYnBikv2srzjPrr-13">
          <mxCell style="html=1;jettySize=18;whiteSpace=wrap;fontSize=20.2;fontFamily=Barlow;fontColor=#333333;fontStyle=1;align=center;strokeColor=#333333;strokeOpacity=100;strokeWidth=3;rounded=1;arcSize=24;edgeStyle=orthogonalEdgeStyle;startArrow=none;endArrow=block;endFill=1;exitX=0.995;exitY=0.5;exitPerimeter=0;entryX=-0.005;entryY=0.534;entryPerimeter=0;" edge="1" parent="1" source="9K7zFpYnBikv2srzjPrr-8" target="9K7zFpYnBikv2srzjPrr-11">
            <mxGeometry width="100" height="100" relative="1" as="geometry">
              <Array as="points" />
            </mxGeometry>
          </mxCell>
        </UserObject>
        <mxCell id="9K7zFpYnBikv2srzjPrr-14" value="Yes" style="text;html=1;resizable=0;labelBackgroundColor=default;align=center;verticalAlign=middle;fontStyle=1;fontColor=#333333;fontSize=20.2;" vertex="1" parent="9K7zFpYnBikv2srzjPrr-13">
          <mxGeometry relative="1" as="geometry" />
        </mxCell>
        <UserObject label="" lucidchartObjectId="vAobUzj0_skj" id="9K7zFpYnBikv2srzjPrr-15">
          <mxCell style="html=1;jettySize=18;whiteSpace=wrap;fontSize=13;strokeColor=#333333;strokeOpacity=100;strokeWidth=3;rounded=1;arcSize=24;edgeStyle=orthogonalEdgeStyle;startArrow=none;endArrow=block;endFill=1;exitX=0.5;exitY=1.008;exitPerimeter=0;entryX=0.5;entryY=-0.005;entryPerimeter=0;" edge="1" parent="1" source="9K7zFpYnBikv2srzjPrr-11" target="9K7zFpYnBikv2srzjPrr-12">
            <mxGeometry width="100" height="100" relative="1" as="geometry">
              <Array as="points" />
            </mxGeometry>
          </mxCell>
        </UserObject>
        <UserObject label="" lucidchartObjectId="xAobCsahOi6t" id="9K7zFpYnBikv2srzjPrr-16">
          <mxCell style="html=1;jettySize=18;whiteSpace=wrap;fontSize=13;strokeColor=#333333;strokeOpacity=100;strokeWidth=3;rounded=1;arcSize=24;edgeStyle=orthogonalEdgeStyle;startArrow=none;endArrow=block;endFill=1;exitX=-0.005;exitY=0.5;exitPerimeter=0;entryX=0.932;entryY=0.464;entryPerimeter=0;" edge="1" parent="1" source="9K7zFpYnBikv2srzjPrr-12" target="9K7zFpYnBikv2srzjPrr-9">
            <mxGeometry width="100" height="100" relative="1" as="geometry">
              <Array as="points" />
            </mxGeometry>
          </mxCell>
        </UserObject>
        <UserObject label="" lucidchartObjectId="zAobnroXXZLW" id="9K7zFpYnBikv2srzjPrr-17">
          <mxCell style="html=1;jettySize=18;whiteSpace=wrap;fontSize=20.2;fontFamily=Barlow;fontColor=#333333;fontStyle=1;align=center;strokeColor=#333333;strokeOpacity=100;strokeWidth=3;rounded=1;arcSize=24;edgeStyle=orthogonalEdgeStyle;startArrow=none;endArrow=block;endFill=1;exitX=0.5;exitY=0.999;exitPerimeter=0;entryX=0.512;entryY=-0.008;entryPerimeter=0;" edge="1" parent="1" source="9K7zFpYnBikv2srzjPrr-8" target="9K7zFpYnBikv2srzjPrr-9">
            <mxGeometry width="100" height="100" relative="1" as="geometry">
              <Array as="points" />
            </mxGeometry>
          </mxCell>
        </UserObject>
        <mxCell id="9K7zFpYnBikv2srzjPrr-18" value="No" style="text;html=1;resizable=0;labelBackgroundColor=default;align=center;verticalAlign=middle;fontStyle=1;fontColor=#333333;fontSize=20.2;" vertex="1" parent="9K7zFpYnBikv2srzjPrr-17">
          <mxGeometry relative="1" as="geometry" />
        </mxCell>
        <UserObject label="" lucidchartObjectId="CAob_7thZHqd" id="9K7zFpYnBikv2srzjPrr-19">
          <mxCell style="html=1;jettySize=18;whiteSpace=wrap;fontSize=13;strokeColor=#333333;strokeOpacity=100;strokeWidth=3;rounded=1;arcSize=24;edgeStyle=orthogonalEdgeStyle;startArrow=none;endArrow=block;endFill=1;exitX=0.488;exitY=1.008;exitPerimeter=0;entryX=0.5;entryY=-0.009;entryPerimeter=0;" edge="1" parent="1" source="9K7zFpYnBikv2srzjPrr-9" target="9K7zFpYnBikv2srzjPrr-10">
            <mxGeometry width="100" height="100" relative="1" as="geometry">
              <Array as="points" />
            </mxGeometry>
          </mxCell>
        </UserObject>
        <UserObject label="" lucidchartObjectId="dusw6.vvuzEm" id="9K7zFpYnBikv2srzjPrr-20">
          <mxCell style="html=1;jettySize=18;whiteSpace=wrap;fontSize=13;strokeColor=#333333;strokeOpacity=100;strokeWidth=3;rounded=1;arcSize=24;edgeStyle=orthogonalEdgeStyle;startArrow=none;endArrow=block;endFill=1;exitX=0.5;exitY=1.008;exitPerimeter=0;entryX=0.5;entryY=0.001;entryPerimeter=0;" edge="1" parent="1" source="9K7zFpYnBikv2srzjPrr-6" target="9K7zFpYnBikv2srzjPrr-8">
            <mxGeometry width="100" height="100" relative="1" as="geometry">
              <Array as="points" />
            </mxGeometry>
          </mxCell>
        </UserObject>
      </root>
    </mxGraphModel>
  </diagram>
</mxfile>
